<svg width="10" height="10" viewBox="0 0 10 10" fill="none" xmlns="http://www.w3.org/2000/svg">
<path d="M4.99989 5.72699L1.75589 8.97899C1.64856 9.08565 1.52922 9.13565 1.39789 9.12899C1.26656 9.12232 1.14722 9.06565 1.03989 8.95899C0.932555 8.85232 0.879222 8.73132 0.879889 8.59599C0.880556 8.46065 0.933889 8.33965 1.03989 8.23299L4.27289 5.00199L1.03989 1.78199C0.933222 1.67399 0.879889 1.55132 0.879889 1.41399C0.879889 1.27665 0.933222 1.15399 1.03989 1.04599C1.14656 0.939319 1.26789 0.885986 1.40389 0.885986C1.53989 0.885986 1.66089 0.939319 1.76689 1.04599L4.99989 4.29799L8.21889 1.04599C8.32556 0.939319 8.44489 0.885986 8.57689 0.885986C8.70889 0.885986 8.82822 0.939319 8.93489 1.04599C9.04489 1.15665 9.09989 1.27899 9.09989 1.41299C9.09989 1.54699 9.04489 1.66699 8.93489 1.77299L5.70189 4.99999L8.95389 8.24399C9.06056 8.35132 9.11389 8.47065 9.11389 8.60199C9.11389 8.73332 9.06056 8.85265 8.95389 8.95999C8.84322 9.06999 8.72089 9.12499 8.58689 9.12499C8.45289 9.12499 8.33289 9.06999 8.22689 8.95999L4.99989 5.72699Z" fill="black"/>
</svg>
